<?xml version="1.0" encoding="UTF-8"?>
<svg xmlns="http://www.w3.org/2000/svg" xmlns:xlink="http://www.w3.org/1999/xlink" width="30pt" height="30pt" viewBox="0 0 30 30" version="1.1">
<g id="surface1">
<path style=" stroke:none;fill-rule:nonzero;fill:rgb(0%,0%,0%);fill-opacity:1;" d="M 30.007812 8.832031 C 29.9375 7.234375 29.679688 6.136719 29.308594 5.1875 C 28.929688 4.175781 28.339844 3.273438 27.570312 2.523438 C 26.820312 1.761719 25.910156 1.167969 24.914062 0.792969 C 23.957031 0.421875 22.867188 0.164062 21.269531 0.09375 C 19.664062 0.0195312 19.152344 0 15.074219 0 C 10.996094 0 10.484375 0.0195312 8.882812 0.0898438 C 7.289062 0.160156 6.191406 0.417969 5.238281 0.785156 C 4.230469 1.167969 3.328125 1.753906 2.574219 2.523438 C 1.8125 3.273438 1.21875 4.183594 0.84375 5.179688 C 0.476562 6.136719 0.21875 7.226562 0.148438 8.824219 C 0.0703125 10.433594 0.0507812 10.941406 0.0507812 15.019531 C 0.0507812 19.097656 0.0703125 19.609375 0.140625 21.210938 C 0.210938 22.808594 0.46875 23.902344 0.839844 24.855469 C 1.21875 25.863281 1.8125 26.769531 2.574219 27.519531 C 3.328125 28.28125 4.238281 28.875 5.234375 29.25 C 6.191406 29.621094 7.28125 29.878906 8.878906 29.949219 C 10.480469 30.019531 10.988281 30.035156 15.066406 30.035156 C 19.144531 30.035156 19.65625 30.019531 21.257812 29.949219 C 22.855469 29.878906 23.953125 29.621094 24.902344 29.25 C 26.921875 28.46875 28.515625 26.875 29.296875 24.855469 C 29.667969 23.898438 29.925781 22.808594 29.996094 21.210938 C 30.066406 19.609375 30.082031 19.097656 30.082031 15.019531 C 30.082031 10.941406 30.078125 10.433594 30.007812 8.832031 Z M 27.300781 21.09375 C 27.238281 22.5625 26.992188 23.351562 26.785156 23.882812 C 26.28125 25.191406 25.242188 26.226562 23.933594 26.734375 C 23.40625 26.9375 22.609375 27.183594 21.148438 27.25 C 19.5625 27.320312 19.085938 27.335938 15.078125 27.335938 C 11.070312 27.335938 10.589844 27.320312 9.011719 27.25 C 7.546875 27.183594 6.753906 26.9375 6.226562 26.734375 C 5.574219 26.492188 4.980469 26.109375 4.5 25.613281 C 4.003906 25.125 3.621094 24.539062 3.378906 23.886719 C 3.171875 23.359375 2.929688 22.5625 2.863281 21.101562 C 2.792969 19.515625 2.777344 19.039062 2.777344 15.03125 C 2.777344 11.023438 2.792969 10.542969 2.863281 8.964844 C 2.929688 7.5 3.171875 6.707031 3.378906 6.179688 C 3.621094 5.527344 4.003906 4.933594 4.507812 4.453125 C 4.992188 3.953125 5.578125 3.574219 6.230469 3.332031 C 6.761719 3.128906 7.558594 2.878906 9.019531 2.816406 C 10.601562 2.746094 11.078125 2.730469 15.085938 2.730469 C 19.097656 2.730469 19.574219 2.746094 21.152344 2.816406 C 22.621094 2.878906 23.414062 3.128906 23.941406 3.332031 C 24.589844 3.574219 25.183594 3.953125 25.664062 4.453125 C 26.164062 4.941406 26.542969 5.527344 26.785156 6.179688 C 26.992188 6.707031 27.238281 7.503906 27.300781 8.964844 C 27.371094 10.550781 27.390625 11.023438 27.390625 15.03125 C 27.390625 19.039062 27.371094 19.507812 27.300781 21.09375 Z M 27.300781 21.09375 "/>
<path style=" stroke:none;fill-rule:nonzero;fill:rgb(0%,0%,0%);fill-opacity:1;" d="M 15.074219 7.304688 C 10.816406 7.304688 7.359375 10.761719 7.359375 15.019531 C 7.359375 19.28125 10.816406 22.738281 15.074219 22.738281 C 19.335938 22.738281 22.789062 19.28125 22.789062 15.019531 C 22.789062 10.761719 19.335938 7.304688 15.074219 7.304688 Z M 15.074219 20.027344 C 12.308594 20.027344 10.070312 17.785156 10.070312 15.019531 C 10.070312 12.257812 12.308594 10.015625 15.074219 10.015625 C 17.835938 10.015625 20.078125 12.257812 20.078125 15.019531 C 20.078125 17.785156 17.835938 20.027344 15.074219 20.027344 Z M 15.074219 20.027344 "/>
<path style=" stroke:none;fill-rule:nonzero;fill:rgb(0%,0%,0%);fill-opacity:1;" d="M 24.898438 7 C 24.898438 7.996094 24.089844 8.800781 23.09375 8.800781 C 22.101562 8.800781 21.292969 7.996094 21.292969 7 C 21.292969 6.003906 22.101562 5.199219 23.09375 5.199219 C 24.089844 5.199219 24.898438 6.003906 24.898438 7 Z M 24.898438 7 "/>
</g>
</svg>
