<?xml version="1.0" encoding="UTF-8"?>
<svg xmlns="http://www.w3.org/2000/svg" xmlns:xlink="http://www.w3.org/1999/xlink" width="30pt" height="30pt" viewBox="0 0 30 30" version="1.1">
<g id="surface1">
<path style=" stroke:none;fill-rule:nonzero;fill:rgb(0%,0%,0%);fill-opacity:1;" d="M 29.992188 30 L 30 30 L 30 18.996094 C 30 13.613281 28.839844 9.46875 22.546875 9.46875 C 19.523438 9.46875 17.492188 11.128906 16.664062 12.703125 L 16.578125 12.703125 L 16.578125 9.96875 L 10.609375 9.96875 L 10.609375 30 L 16.824219 30 L 16.824219 20.082031 C 16.824219 17.46875 17.320312 14.945312 20.550781 14.945312 C 23.738281 14.945312 23.785156 17.925781 23.785156 20.25 L 23.785156 30 Z M 29.992188 30 "/>
<path style=" stroke:none;fill-rule:nonzero;fill:rgb(0%,0%,0%);fill-opacity:1;" d="M 0.496094 9.972656 L 6.714844 9.972656 L 6.714844 30 L 0.496094 30 Z M 0.496094 9.972656 "/>
<path style=" stroke:none;fill-rule:nonzero;fill:rgb(0%,0%,0%);fill-opacity:1;" d="M 3.601562 0 C 1.613281 0 0 1.613281 0 3.601562 C 0 5.589844 1.613281 7.238281 3.601562 7.238281 C 5.589844 7.238281 7.203125 5.589844 7.203125 3.601562 C 7.203125 1.613281 5.589844 0 3.601562 0 Z M 3.601562 0 "/>
</g>
</svg>
