<?xml version="1.0" encoding="UTF-8"?>
<svg xmlns="http://www.w3.org/2000/svg" xmlns:xlink="http://www.w3.org/1999/xlink" width="35pt" height="35pt" viewBox="0 0 35 35" version="1.1">
<g id="surface1">
<path style=" stroke:none;fill-rule:evenodd;fill:rgb(0%,0%,0%);fill-opacity:1;" d="M 29.125 5.847656 C 26.050781 2.773438 21.96875 1.078125 17.617188 1.078125 C 8.648438 1.078125 1.351562 8.375 1.347656 17.34375 C 1.34375 20.210938 2.09375 23.011719 3.519531 25.480469 L 1.210938 33.910156 L 9.835938 31.648438 C 12.210938 32.941406 14.886719 33.625 17.609375 33.625 L 17.617188 33.625 C 26.582031 33.625 33.882812 26.328125 33.882812 17.359375 C 33.886719 13.011719 32.195312 8.921875 29.125 5.847656 Z M 17.617188 30.878906 L 17.609375 30.878906 C 15.183594 30.878906 12.804688 30.226562 10.726562 28.996094 L 10.234375 28.703125 L 5.117188 30.042969 L 6.480469 25.054688 L 6.160156 24.542969 C 4.808594 22.390625 4.09375 19.902344 4.09375 17.347656 C 4.097656 9.890625 10.164062 3.824219 17.621094 3.824219 C 21.234375 3.828125 24.628906 5.234375 27.179688 7.789062 C 29.734375 10.347656 31.140625 13.742188 31.136719 17.355469 C 31.132812 24.8125 25.070312 30.878906 17.617188 30.878906 Z M 25.03125 20.75 C 24.625 20.546875 22.628906 19.566406 22.253906 19.429688 C 21.882812 19.292969 21.609375 19.226562 21.339844 19.632812 C 21.070312 20.039062 20.289062 20.957031 20.054688 21.226562 C 19.816406 21.496094 19.578125 21.53125 19.171875 21.328125 C 18.765625 21.125 17.457031 20.695312 15.902344 19.3125 C 14.695312 18.234375 13.878906 16.902344 13.640625 16.496094 C 13.40625 16.085938 13.640625 15.890625 13.820312 15.664062 C 14.261719 15.117188 14.699219 14.546875 14.835938 14.273438 C 14.972656 14.003906 14.902344 13.765625 14.800781 13.5625 C 14.699219 13.359375 13.886719 11.359375 13.550781 10.542969 C 13.21875 9.75 12.882812 9.859375 12.632812 9.847656 C 12.398438 9.835938 12.125 9.832031 11.855469 9.832031 C 11.585938 9.832031 11.144531 9.933594 10.769531 10.339844 C 10.398438 10.746094 9.347656 11.730469 9.347656 13.730469 C 9.347656 15.734375 10.804688 17.664062 11.007812 17.9375 C 11.210938 18.207031 13.875 22.316406 17.953125 24.074219 C 18.921875 24.496094 19.679688 24.746094 20.269531 24.929688 C 21.246094 25.242188 22.128906 25.199219 22.832031 25.09375 C 23.613281 24.976562 25.234375 24.109375 25.574219 23.160156 C 25.914062 22.210938 25.914062 21.394531 25.8125 21.226562 C 25.710938 21.058594 25.4375 20.957031 25.03125 20.75 Z M 25.03125 20.75 "/>
</g>
</svg>
